<?xml version="1.0" standalone="no"?>
<!DOCTYPE svg PUBLIC "-//W3C//DTD SVG 20010904//EN"
 "http://www.w3.org/TR/2001/REC-SVG-20010904/DTD/svg10.dtd">
<svg version="1.0" xmlns="http://www.w3.org/2000/svg"
 width="83.000000pt" height="45.000000pt" viewBox="0 0 83.000000 45.000000"
 preserveAspectRatio="xMidYMid meet">

<g transform="translate(0.000000,45.000000) scale(0.100000,-0.100000)"
fill="#000000" stroke="none">
<path d="M820 401 l0 -49 -29 14 c-33 16 -74 6 -85 -21 -12 -32 -6 -82 12 -98
22 -20 77 -22 89 -4 4 6 10 -44 13 -113 5 -107 6 -93 8 98 1 122 0 222 -3 222
-3 0 -5 -22 -5 -49z m-32 -73 c3 -14 -3 -18 -27 -18 -29 0 -41 17 -24 34 13
13 48 1 51 -16z m32 -54 c0 -8 -4 -13 -10 -9 -5 3 -18 0 -28 -6 -23 -15 -52
-6 -52 16 0 11 11 15 45 15 34 0 45 -4 45 -16z"/>
<path d="M0 330 c0 -82 3 -100 15 -100 11 0 15 12 15 45 0 37 3 45 18 45 11 0
26 -16 40 -45 12 -25 29 -45 37 -45 13 0 12 7 -5 41 -20 37 -20 42 -6 58 23
25 20 67 -6 85 -12 9 -42 16 -65 16 l-43 0 0 -100z m104 55 c10 -28 -5 -45
-40 -45 -31 0 -34 3 -34 30 0 27 3 30 34 30 21 0 36 -6 40 -15z"/>
<path d="M327 423 c-4 -3 -7 -48 -7 -98 l0 -92 45 -1 c55 -1 75 17 75 67 0 56
-34 89 -72 69 -16 -7 -18 -4 -18 27 0 33 -8 43 -23 28z m81 -121 c3 -46 -16
-65 -43 -42 -30 25 -15 93 19 88 17 -2 22 -11 24 -46z"/>
<path d="M480 331 l0 -99 47 2 c40 1 50 5 60 26 14 27 10 74 -8 97 -6 7 -27
13 -45 13 -31 0 -34 3 -34 30 0 17 -4 30 -10 30 -6 0 -10 -40 -10 -99z m78 7
c29 -29 3 -98 -33 -84 -15 5 -22 76 -8 89 10 11 28 8 41 -5z"/>
<path d="M630 416 c0 -8 4 -17 9 -20 11 -7 33 18 24 27 -12 12 -33 7 -33 -7z"/>
<path d="M203 369 c-30 -11 -46 -46 -39 -82 9 -43 24 -57 61 -57 38 0 52 14
61 58 11 56 -34 99 -83 81z m46 -33 c17 -20 10 -67 -11 -79 -23 -15 -48 8 -48
42 0 45 35 66 59 37z"/>
<path d="M630 300 c0 -56 3 -70 15 -70 12 0 15 14 15 70 0 56 -3 70 -15 70
-12 0 -15 -14 -15 -70z"/>
<path d="M0 111 l0 -101 65 0 c37 0 65 4 65 10 0 6 -22 10 -50 10 l-49 0 -3
87 c-2 58 -7 88 -15 91 -10 3 -13 -21 -13 -97z"/>
<path d="M734 100 c0 -52 1 -74 3 -47 2 26 2 68 0 95 -2 26 -3 4 -3 -48z"/>
<path d="M193 149 c-42 -16 -55 -86 -22 -126 15 -17 73 -17 88 0 16 20 3 27
-25 15 -17 -8 -27 -8 -39 2 -26 21 -17 30 30 30 43 0 45 1 45 29 0 41 -36 65
-77 50z m45 -41 c3 -14 -3 -18 -27 -18 -29 0 -41 17 -24 34 13 13 48 1 51 -16z"/>
<path d="M310 80 c0 -40 4 -70 10 -70 6 0 10 22 10 49 0 51 18 78 45 67 11 -4
15 -21 15 -61 0 -42 3 -55 15 -55 12 0 15 13 15 58 0 32 -5 63 -12 70 -7 7
-31 12 -55 12 l-43 0 0 -70z"/>
<path d="M460 135 c-18 -21 -5 -44 34 -60 19 -8 37 -19 41 -25 10 -17 -25 -24
-51 -10 -28 16 -42 7 -24 -15 13 -15 56 -20 84 -9 19 7 21 47 3 62 -6 6 -24
13 -40 17 -15 4 -27 13 -27 21 0 17 41 19 58 2 17 -17 28 -2 12 17 -16 19 -74
20 -90 0z"/>
<path d="M643 80 c0 -41 2 -58 4 -38 2 21 2 55 0 76 -2 20 -4 3 -4 -38z"/>
</g>
</svg>
